<?xml version="1.0" standalone="no"?>
<!DOCTYPE svg PUBLIC "-//W3C//DTD SVG 20010904//EN"
 "http://www.w3.org/TR/2001/REC-SVG-20010904/DTD/svg10.dtd">
<svg version="1.0" xmlns="http://www.w3.org/2000/svg"
 width="718.000000pt" height="718.000000pt" viewBox="0 0 718.000000 718.000000"
 preserveAspectRatio="xMidYMid meet">
<metadata>
Created by potrace 1.11, written by Peter Selinger 2001-2013
</metadata>
<g transform="translate(0.000000,718.000000) scale(0.100000,-0.100000)"
fill="#000000" stroke="none">
<path d="M3488 7164 c-4 -3 -47 -8 -95 -9 -48 -2 -110 -6 -138 -10 -27 -3 -68
-8 -90 -10 -22 -2 -55 -6 -73 -9 -18 -3 -52 -8 -75 -11 -36 -5 -80 -13 -162
-29 -11 -3 -40 -9 -65 -16 -25 -6 -58 -13 -75 -16 -16 -3 -79 -21 -140 -40
-60 -19 -119 -36 -130 -38 -11 -2 -21 -5 -22 -6 -2 -1 -7 -3 -12 -4 -5 0 -13
-4 -17 -8 -4 -5 -16 -8 -26 -8 -10 0 -18 -5 -18 -11 0 -5 -4 -8 -9 -4 -5 3
-12 1 -16 -5 -4 -6 -10 -8 -14 -5 -5 2 -25 -5 -47 -15 -21 -11 -44 -20 -51
-20 -7 0 -13 -5 -13 -12 0 -6 -3 -9 -6 -5 -3 3 -34 -7 -69 -23 -103 -46 -220
-103 -225 -109 -3 -4 -27 -18 -55 -31 -27 -14 -55 -30 -61 -36 -7 -6 -26 -17
-43 -24 -17 -7 -31 -16 -31 -21 0 -5 -5 -9 -10 -9 -13 0 -164 -100 -168 -112
-2 -4 -9 -8 -16 -8 -7 0 -21 -9 -31 -20 -10 -11 -22 -20 -27 -20 -4 0 -17 -8
-27 -17 -11 -10 -26 -22 -33 -28 -35 -26 -176 -143 -203 -169 -95 -90 -195
-191 -195 -198 0 -4 -7 -8 -15 -8 -8 0 -15 -4 -15 -8 0 -7 -45 -60 -110 -131
-37 -40 -160 -201 -160 -210 0 -5 -3 -11 -8 -13 -12 -5 -102 -135 -102 -147 0
-6 -3 -11 -8 -11 -4 0 -12 -9 -17 -19 -6 -11 -32 -56 -58 -99 -47 -79 -131
-233 -143 -262 -3 -8 -15 -35 -26 -60 -19 -41 -33 -72 -61 -140 -6 -14 -11
-28 -11 -32 -1 -3 -4 -10 -9 -14 -4 -4 -7 -13 -7 -19 0 -7 -8 -30 -17 -51 -9
-22 -17 -41 -18 -44 0 -3 -13 -41 -28 -85 -24 -73 -83 -288 -93 -342 -2 -13
-6 -35 -9 -50 -16 -81 -36 -205 -41 -253 -3 -30 -7 -61 -9 -67 -23 -73 -23
-693 0 -783 2 -8 7 -42 11 -75 3 -33 10 -80 15 -105 6 -25 10 -52 11 -60 2
-43 57 -270 96 -400 9 -30 17 -57 17 -60 1 -3 4 -12 7 -20 3 -8 20 -55 37
-105 18 -49 38 -103 46 -120 7 -16 21 -50 31 -75 24 -58 163 -337 184 -370 10
-14 43 -68 76 -120 32 -52 64 -101 71 -108 7 -7 13 -16 13 -20 0 -4 11 -20 25
-36 14 -16 25 -33 25 -37 0 -4 25 -38 56 -76 30 -37 72 -88 92 -113 183 -223
495 -509 723 -661 20 -13 61 -40 90 -60 426 -282 967 -483 1479 -549 254 -32
664 -35 900 -5 650 83 1233 322 1750 719 58 44 110 85 116 91 6 5 48 43 92 83
645 581 1057 1375 1157 2227 20 171 24 287 20 495 -3 129 -7 249 -9 265 -3 17
-8 55 -11 85 -6 51 -20 148 -31 213 -72 423 -253 890 -492 1267 -339 537 -832
991 -1387 1279 -30 16 -62 34 -70 41 -8 7 -15 10 -15 7 0 -4 -40 14 -90 38
-49 25 -93 45 -98 45 -5 0 -31 9 -57 21 -78 34 -205 78 -205 71 0 -4 -4 -2 -8
4 -6 9 -84 35 -143 49 -8 2 -38 10 -66 18 -28 9 -54 13 -57 10 -3 -4 -6 -2 -6
3 0 6 -10 10 -22 11 -13 0 -54 8 -91 17 -38 9 -73 14 -78 10 -5 -3 -9 0 -9 5
0 6 -3 10 -7 9 -7 -2 -102 10 -143 18 -8 1 -41 5 -73 8 -32 3 -70 8 -85 11
-15 3 -90 7 -166 10 -77 3 -143 8 -148 11 -4 3 -8 1 -8 -5 0 -7 -8 -7 -22 -2
-13 4 -35 5 -50 0 -16 -4 -28 -3 -30 2 -2 6 -7 7 -10 3z"/>
</g>
</svg>
